<svg   xmlns="http://www.w3.org/2000/svg" 
  version="1.1" width="330" height="330">
  

<rect x="15" y="15" rx="40" ry="40" width="300" height="300" fill="none" 
	stroke="#555" stroke-width="30"/>

<text x="45"  y="290" font-size="385" font-weight="bold" fill="#555" 
	stroke="#09fff3" stroke-width="10" textLength="250" 
	lengthAdjust="spacing" font-family="'Lucida Console', Monaco, monospace">
	T
	</text>

<!-- <path d="M45 200 
  h30 a1 1 0 0 0 1 -1 
  v-95 a1 1 0 0 1 24 0 
  l60 150 a1 1 0 0 0 10 0 
  l60 -150 a1 1 0 0 1 24 0 
  l0 110 a1 1 0 0 0 1 1 
  h30"
   fill="none" stroke="#09fff3" stroke-width="20" stroke-linecap="round"/> 

<rect x="15" y="15" rx="40" ry="40" width="300" height="300" fill="none" stroke="#555" stroke-width="30"/>

<text x="40"  y="295" font-size="400" font-weight="bold" fill="#555" textLength="250" lengthAdjust="spacing" font-family="'Lucida Console', Monaco, monospace">T</text> -->

</svg>