<svg   xmlns="http://www.w3.org/2000/svg" 
  version="1.1" width="915" height="350">
  
<rect x="50" y="15" rx="40" ry="40" width="835" height="310" fill="none" stroke="#555" stroke-width="30"/>

<text x="50"  y="298" font-size="400" font-weight="bold" fill="#555" textLength="825" font-family="'Lucida Console', Monaco, monospace">H MS</text>
<text x="230"  y="298" font-size="400" font-weight="bold" fill="#999" textLength="740" font-family="'Lucida Console', Monaco, monospace">H</text>

<path d="M20 166 
  h430 a1 1 0 0 0 1 -1 
  v-95 a1 1 0 0 1 2 0
  h35 a1 1 0 0 1 2 0
  l60 150 a1 1 0 0 0 10 0 
  l60 -150 a1 1 0 0 1 24 0 
  l0 110 a1 1 0 0 0 1 1 
  h260"
   fill="none" stroke="#09fff3" stroke-width="20" stroke-linecap="round"/>

</svg>